# Blender v2.63 (sub 0) OBJ File: ''
# www.blender.org
v 0.002363 -0.145405 -0.180676
v 0.003389 -0.178730 -0.214352
v 0.003389 0.379131 -0.214352
v 0.002363 0.345806 -0.180676
v -0.010902 -0.178730 -0.214787
v -0.011928 -0.145405 -0.181112
v -0.011928 0.345806 -0.181112
v -0.010902 0.379131 -0.214787
v -0.007318 -0.140644 -0.176086
v -0.002545 -0.140644 -0.175940
v -0.002545 0.341045 -0.175940
v -0.007318 0.341045 -0.176086
v -0.008676 -0.145405 0.181461
v -0.009688 -0.178730 0.214648
v -0.023979 -0.178730 0.214213
v -0.022967 -0.145405 0.181025
v -0.018060 -0.140644 0.176289
v -0.013286 -0.140644 0.176435
v -0.013286 0.341045 0.176435
v -0.018060 0.341045 0.176289
v -0.009688 0.379131 0.214648
v -0.008676 0.345806 0.181461
v -0.022967 0.345806 0.181025
v -0.023979 0.379131 0.214213
v 0.101172 -0.193013 -0.225538
v 0.101172 -0.178730 -0.225538
v 0.087232 -0.178730 0.231769
v 0.087232 -0.193013 0.231769
v -0.053209 -0.207417 -0.235129
v -0.067447 -0.207417 0.231939
v -0.067447 -0.178730 0.231939
v -0.053209 -0.178730 -0.235129
v 0.082325 -0.193013 0.236505
v -0.048397 -0.193013 0.232520
v -0.034160 -0.193013 -0.234548
v 0.096563 -0.193013 -0.230563
v 0.096563 -0.178730 -0.230563
v 0.082325 -0.178730 0.236505
v -0.034160 -0.207417 -0.234548
v -0.048397 -0.207417 0.232520
v -0.005149 -0.135884 -0.171623
v -0.005015 -0.140644 -0.176016
v -0.015608 -0.135884 0.171479
v -0.015757 -0.140644 0.176360
v -0.005015 0.341045 -0.176016
v -0.005149 0.336284 -0.171623
v -0.015608 0.336284 0.171479
v -0.015757 0.341045 0.176360
vt 0.000000 0.000000
vt 1.000000 0.000000
vt 1.000000 1.000000
vt 0.000000 1.000000
vt 0.500000 0.500000
vt 0.333333 0.333333
vt 0.333333 0.000000
vt 0.666667 0.333333
vt 0.666667 0.000000
vt 0.000000 0.666667
vt 0.000000 0.333333
vt 0.333333 0.666667
vt 0.666667 0.666667
vt 1.000000 0.666667
vt 1.000000 0.333333
vt 0.333333 1.000000
vt 0.666667 1.000000
vn 0.999536 0.000000 0.030469
vn -0.999536 -0.000000 -0.030469
vn -0.030467 -0.000000 0.999536
vn -0.000000 1.000000 0.000000
vn 0.000000 -1.000000 -0.000000
vn 0.030467 0.000000 -0.999536
vn 0.694397 0.000000 0.719592
vn -0.736939 -0.000000 0.675960
vn 0.706778 0.707107 0.021545
vn -0.706779 0.707107 -0.021545
vn -0.706778 0.707107 -0.021545
vn 0.706779 -0.707107 0.021545
vn -0.706778 -0.707107 -0.021545
vn -0.694397 -0.000000 -0.719592
vn 0.736939 0.000000 -0.675960
vn 0.999536 0.000001 0.030469
vn 0.030469 0.000000 -0.999536
vn 0.736937 0.000000 -0.675961
vn 0.736938 0.000000 -0.675960
vn 0.694398 0.000000 0.719591
vn -0.030469 0.000000 0.999536
vn 0.000001 -1.000000 0.000000
s off
f 1/1/1 2/2/1 3/2/1
f 4/1/1 1/1/1 3/2/1
f 5/3/2 6/4/2 7/4/2
f 7/4/2 8/3/2 5/3/2
f 9/4/3 10/1/3 11/1/3
f 11/1/3 12/4/3 9/4/3
f 2/1/1 1/2/1 13/2/1
f 13/2/1 14/1/1 2/1/1
f 6/3/2 5/4/2 15/4/2
f 15/4/2 16/3/2 6/3/2
f 10/2/4 9/3/4 17/3/4
f 17/3/4 18/2/4 10/2/4
f 12/4/5 11/1/5 19/1/5
f 19/1/5 20/4/5 12/4/5
f 4/1/1 3/1/1 21/1/1
f 21/1/1 22/1/1 4/1/1
f 8/4/2 7/4/2 23/4/2
f 23/4/2 24/4/2 8/4/2
f 18/2/6 17/3/6 20/3/6
f 20/3/6 19/2/6 18/2/6
f 14/2/1 13/2/1 22/2/1
f 22/2/1 21/2/1 14/2/1
f 16/3/2 15/3/2 24/3/2
f 24/3/2 23/3/2 16/3/2
f 10/5/7 1/1/7 11/5/7
f 11/5/7 1/1/7 4/5/7
f 6/5/8 9/5/8 7/4/8
f 12/5/8 7/4/8 9/5/8
f 1/5/9 10/5/9 13/2/9
f 18/5/9 13/2/9 10/5/9
f 9/5/10 6/4/10 17/5/10
f 16/5/11 17/5/11 6/4/11
f 11/5/12 4/1/12 19/1/12
f 22/5/12 19/1/12 4/1/12
f 7/5/13 12/5/13 23/4/13
f 20/5/13 23/4/13 12/5/13
f 17/5/14 16/3/14 20/3/14
f 23/5/14 20/3/14 16/3/14
f 13/5/15 18/5/15 22/2/15
f 19/5/15 22/2/15 18/5/15
f 25/2/16 26/3/16 27/4/16
f 27/4/1 28/1/1 25/2/1
f 29/1/2 30/2/2 31/3/2
f 31/3/2 32/4/2 29/1/2
f 25/1/5 33/2/5 34/3/5
f 34/3/5 35/4/5 36/1/5
f 27/1/4 37/2/4 32/3/4
f 32/3/4 31/4/4 38/1/4
f 37/1/17 36/2/17 35/3/17
f 35/3/17 32/4/17 37/1/17
f 25/2/5 28/5/5 33/1/5
f 27/5/4 26/5/4 37/3/4
f 25/2/18 36/5/18 26/5/18
f 37/3/19 26/5/19 36/5/19
f 33/1/20 28/5/20 38/4/20
f 27/5/20 38/4/20 28/5/20
f 34/2/5 36/5/5 25/2/5
f 32/4/4 38/4/4 27/5/4
f 34/4/21 33/1/21 38/1/21
f 38/1/21 31/4/21 34/4/21
f 39/1/22 40/2/22 30/2/22
f 30/2/22 29/1/22 39/1/22
f 31/3/21 30/2/21 34/2/21
f 32/4/17 35/1/17 29/1/17
f 35/1/1 34/2/1 40/2/1
f 40/2/1 39/1/1 35/1/1
f 30/2/21 40/2/21 34/2/21
f 29/1/17 35/1/17 39/1/17
f 41/6/2 42/7/2 43/8/2
f 44/9/2 43/8/2 42/7/2
f 45/10/2 42/11/2 46/12/2
f 41/6/2 46/12/2 42/11/2
f 47/13/2 43/8/2 48/14/2
f 44/15/2 48/14/2 43/8/2
f 45/16/2 46/12/2 48/17/2
f 47/13/2 48/17/2 46/12/2
